<mxfile host="app.diagrams.net" modified="2024-03-13T00:15:27.854Z" agent="Mozilla/5.0 (Windows NT 10.0; Win64; x64) AppleWebKit/537.36 (KHTML, like Gecko) Chrome/122.0.0.0 Safari/537.36 Edg/122.0.0.0" etag="MS6KsMAo7NxL5d0V8WNz" version="23.1.7" type="device">
  <diagram name="Page-1" id="0783ab3e-0a74-02c8-0abd-f7b4e66b4bec">
    <mxGraphModel dx="4447" dy="284" grid="1" gridSize="10" guides="1" tooltips="1" connect="1" arrows="1" fold="1" page="1" pageScale="1" pageWidth="850" pageHeight="1100" background="none" math="0" shadow="0">
      <root>
        <mxCell id="0" />
        <mxCell id="1" parent="0" />
        <mxCell id="gXNQpkiOnZ2-3wOrajNW-1" value="Пользователь" style="shape=umlActor;verticalLabelPosition=bottom;verticalAlign=top;html=1;" parent="1" vertex="1">
          <mxGeometry x="-730" y="1710" width="30" height="60" as="geometry" />
        </mxCell>
        <mxCell id="gXNQpkiOnZ2-3wOrajNW-2" value="Ввод правильного логина и пароля" style="rounded=1;whiteSpace=wrap;html=1;shadow=0;comic=0;labelBackgroundColor=none;strokeWidth=1;fontFamily=Verdana;fontSize=12;align=center;arcSize=50;" parent="1" vertex="1">
          <mxGeometry x="-260" y="1340" width="180" height="70" as="geometry" />
        </mxCell>
        <mxCell id="gXNQpkiOnZ2-3wOrajNW-5" value="&amp;lt;&amp;lt;Include&amp;gt;&amp;gt;" style="endArrow=open;endSize=12;dashed=1;html=1;rounded=0;exitX=1;exitY=0.5;exitDx=0;exitDy=0;entryX=0;entryY=0.5;entryDx=0;entryDy=0;" parent="1" source="gXNQpkiOnZ2-3wOrajNW-2" target="gXNQpkiOnZ2-3wOrajNW-6" edge="1">
          <mxGeometry width="160" relative="1" as="geometry">
            <mxPoint x="345" y="1220" as="sourcePoint" />
            <mxPoint x="490" y="1240" as="targetPoint" />
          </mxGeometry>
        </mxCell>
        <mxCell id="gXNQpkiOnZ2-3wOrajNW-6" value="Вход в учетную запись" style="rounded=1;whiteSpace=wrap;html=1;shadow=0;comic=0;labelBackgroundColor=none;strokeWidth=1;fontFamily=Verdana;fontSize=12;align=center;arcSize=50;" parent="1" vertex="1">
          <mxGeometry x="30" y="1161" width="170" height="80" as="geometry" />
        </mxCell>
        <mxCell id="gXNQpkiOnZ2-3wOrajNW-11" value="Поставить оценку фильму" style="rounded=1;whiteSpace=wrap;html=1;shadow=0;comic=0;labelBackgroundColor=none;strokeWidth=1;fontFamily=Verdana;fontSize=12;align=center;arcSize=50;" parent="1" vertex="1">
          <mxGeometry x="-710" y="1380" width="180" height="70" as="geometry" />
        </mxCell>
        <mxCell id="gXNQpkiOnZ2-3wOrajNW-12" value="Написать отзыв фильму" style="rounded=1;whiteSpace=wrap;html=1;shadow=0;comic=0;labelBackgroundColor=none;strokeWidth=1;fontFamily=Verdana;fontSize=12;align=center;arcSize=50;" parent="1" vertex="1">
          <mxGeometry x="-530" y="1260" width="180" height="70" as="geometry" />
        </mxCell>
        <mxCell id="gXNQpkiOnZ2-3wOrajNW-15" value="&amp;lt;&amp;lt;Extend&amp;gt;&amp;gt;" style="endArrow=open;endSize=12;dashed=1;html=1;rounded=0;exitX=0;exitY=0.5;exitDx=0;exitDy=0;entryX=1;entryY=0.5;entryDx=0;entryDy=0;" parent="1" source="gXNQpkiOnZ2-3wOrajNW-12" target="gXNQpkiOnZ2-3wOrajNW-11" edge="1">
          <mxGeometry width="160" relative="1" as="geometry">
            <mxPoint x="190" y="1450" as="sourcePoint" />
            <mxPoint x="260" y="1590" as="targetPoint" />
          </mxGeometry>
        </mxCell>
        <mxCell id="gXNQpkiOnZ2-3wOrajNW-18" value="" style="endArrow=none;html=1;rounded=0;entryX=0;entryY=0.25;entryDx=0;entryDy=0;" parent="1" source="gXNQpkiOnZ2-3wOrajNW-1" target="gXNQpkiOnZ2-3wOrajNW-11" edge="1">
          <mxGeometry width="50" height="50" relative="1" as="geometry">
            <mxPoint x="420" y="1490" as="sourcePoint" />
            <mxPoint x="470" y="1440" as="targetPoint" />
          </mxGeometry>
        </mxCell>
        <mxCell id="gXNQpkiOnZ2-3wOrajNW-19" value="" style="endArrow=none;html=1;rounded=0;entryX=0;entryY=0.75;entryDx=0;entryDy=0;exitX=0.75;exitY=0.1;exitDx=0;exitDy=0;exitPerimeter=0;" parent="1" target="gXNQpkiOnZ2-3wOrajNW-2" edge="1" source="gXNQpkiOnZ2-3wOrajNW-1">
          <mxGeometry width="50" height="50" relative="1" as="geometry">
            <mxPoint x="-130" y="1270" as="sourcePoint" />
            <mxPoint x="10" y="1458" as="targetPoint" />
          </mxGeometry>
        </mxCell>
        <mxCell id="gXNQpkiOnZ2-3wOrajNW-23" value="Купить билет на фильм" style="rounded=1;whiteSpace=wrap;html=1;shadow=0;comic=0;labelBackgroundColor=none;strokeWidth=1;fontFamily=Verdana;fontSize=12;align=center;arcSize=50;" parent="1" vertex="1">
          <mxGeometry x="-470" y="1620" width="180" height="70" as="geometry" />
        </mxCell>
        <mxCell id="gXNQpkiOnZ2-3wOrajNW-24" value="Выбрать фильм" style="rounded=1;whiteSpace=wrap;html=1;shadow=0;comic=0;labelBackgroundColor=none;strokeWidth=1;fontFamily=Verdana;fontSize=12;align=center;arcSize=50;" parent="1" vertex="1">
          <mxGeometry x="-390" y="1520" width="180" height="70" as="geometry" />
        </mxCell>
        <mxCell id="gXNQpkiOnZ2-3wOrajNW-25" value="Выбрать сеанс" style="rounded=1;whiteSpace=wrap;html=1;shadow=0;comic=0;labelBackgroundColor=none;strokeWidth=1;fontFamily=Verdana;fontSize=12;align=center;arcSize=50;" parent="1" vertex="1">
          <mxGeometry x="-130" y="1600" width="180" height="70" as="geometry" />
        </mxCell>
        <mxCell id="gXNQpkiOnZ2-3wOrajNW-26" value="&amp;lt;&amp;lt;Include&amp;gt;&amp;gt;" style="endArrow=open;endSize=12;dashed=1;html=1;rounded=0;exitX=1;exitY=0.25;exitDx=0;exitDy=0;" parent="1" source="gXNQpkiOnZ2-3wOrajNW-23" target="gXNQpkiOnZ2-3wOrajNW-24" edge="1">
          <mxGeometry width="160" relative="1" as="geometry">
            <mxPoint x="150" y="1245" as="sourcePoint" />
            <mxPoint x="320" y="1250" as="targetPoint" />
          </mxGeometry>
        </mxCell>
        <mxCell id="gXNQpkiOnZ2-3wOrajNW-27" value="&amp;lt;&amp;lt;Include&amp;gt;&amp;gt;" style="endArrow=open;endSize=12;dashed=1;html=1;rounded=0;entryX=0.046;entryY=0.065;entryDx=0;entryDy=0;entryPerimeter=0;" parent="1" source="gXNQpkiOnZ2-3wOrajNW-23" target="gXNQpkiOnZ2-3wOrajNW-25" edge="1">
          <mxGeometry width="160" relative="1" as="geometry">
            <mxPoint x="130" y="1548" as="sourcePoint" />
            <mxPoint x="170" y="1559" as="targetPoint" />
            <Array as="points" />
          </mxGeometry>
        </mxCell>
        <mxCell id="gXNQpkiOnZ2-3wOrajNW-28" value="Оплатить счет за билет" style="rounded=1;whiteSpace=wrap;html=1;shadow=0;comic=0;labelBackgroundColor=none;strokeWidth=1;fontFamily=Verdana;fontSize=12;align=center;arcSize=50;" parent="1" vertex="1">
          <mxGeometry x="-130" y="1690" width="180" height="70" as="geometry" />
        </mxCell>
        <mxCell id="gXNQpkiOnZ2-3wOrajNW-29" value="&amp;lt;&amp;lt;Include&amp;gt;&amp;gt;" style="endArrow=open;endSize=12;dashed=1;html=1;rounded=0;exitX=0.622;exitY=1.094;exitDx=0;exitDy=0;exitPerimeter=0;" parent="1" source="gXNQpkiOnZ2-3wOrajNW-23" target="gXNQpkiOnZ2-3wOrajNW-28" edge="1">
          <mxGeometry width="160" relative="1" as="geometry">
            <mxPoint x="84" y="1600" as="sourcePoint" />
            <mxPoint x="178" y="1675" as="targetPoint" />
            <Array as="points" />
          </mxGeometry>
        </mxCell>
        <mxCell id="gXNQpkiOnZ2-3wOrajNW-30" value="" style="endArrow=none;html=1;rounded=0;entryX=0;entryY=0.5;entryDx=0;entryDy=0;" parent="1" source="gXNQpkiOnZ2-3wOrajNW-1" target="gXNQpkiOnZ2-3wOrajNW-23" edge="1">
          <mxGeometry width="50" height="50" relative="1" as="geometry">
            <mxPoint x="-120" y="1292" as="sourcePoint" />
            <mxPoint x="10" y="1388" as="targetPoint" />
          </mxGeometry>
        </mxCell>
        <mxCell id="gXNQpkiOnZ2-3wOrajNW-31" value="Посмотреть каталог фильмов" style="rounded=1;whiteSpace=wrap;html=1;shadow=0;comic=0;labelBackgroundColor=none;strokeWidth=1;fontFamily=Verdana;fontSize=12;align=center;arcSize=50;" parent="1" vertex="1">
          <mxGeometry x="-700" y="1470" width="180" height="70" as="geometry" />
        </mxCell>
        <mxCell id="gXNQpkiOnZ2-3wOrajNW-32" value="Посмотреть отзывы на фильм" style="rounded=1;whiteSpace=wrap;html=1;shadow=0;comic=0;labelBackgroundColor=none;strokeWidth=1;fontFamily=Verdana;fontSize=12;align=center;arcSize=50;" parent="1" vertex="1">
          <mxGeometry x="-470" y="1730" width="180" height="70" as="geometry" />
        </mxCell>
        <mxCell id="gXNQpkiOnZ2-3wOrajNW-33" value="" style="endArrow=none;html=1;rounded=0;entryX=0;entryY=0.5;entryDx=0;entryDy=0;" parent="1" source="gXNQpkiOnZ2-3wOrajNW-1" target="gXNQpkiOnZ2-3wOrajNW-32" edge="1">
          <mxGeometry width="50" height="50" relative="1" as="geometry">
            <mxPoint x="-120" y="1310" as="sourcePoint" />
            <mxPoint x="-5" y="1530" as="targetPoint" />
          </mxGeometry>
        </mxCell>
        <mxCell id="gXNQpkiOnZ2-3wOrajNW-34" value="" style="endArrow=none;html=1;rounded=0;" parent="1" source="gXNQpkiOnZ2-3wOrajNW-1" target="gXNQpkiOnZ2-3wOrajNW-31" edge="1">
          <mxGeometry width="50" height="50" relative="1" as="geometry">
            <mxPoint x="-110" y="1320" as="sourcePoint" />
            <mxPoint x="5" y="1540" as="targetPoint" />
          </mxGeometry>
        </mxCell>
        <mxCell id="gXNQpkiOnZ2-3wOrajNW-35" value="Администратор" style="shape=umlActor;verticalLabelPosition=bottom;verticalAlign=top;html=1;" parent="1" vertex="1">
          <mxGeometry x="280" y="1440" width="30" height="60" as="geometry" />
        </mxCell>
        <mxCell id="gXNQpkiOnZ2-3wOrajNW-37" value="Добавить фильм" style="rounded=1;whiteSpace=wrap;html=1;shadow=0;comic=0;labelBackgroundColor=none;strokeWidth=1;fontFamily=Verdana;fontSize=12;align=center;arcSize=50;" parent="1" vertex="1">
          <mxGeometry x="210" y="1311" width="170" height="80" as="geometry" />
        </mxCell>
        <mxCell id="gXNQpkiOnZ2-3wOrajNW-38" value="" style="endArrow=none;html=1;rounded=0;entryX=1;entryY=0.75;entryDx=0;entryDy=0;exitX=0;exitY=0.3333333333333333;exitDx=0;exitDy=0;exitPerimeter=0;" parent="1" source="gXNQpkiOnZ2-3wOrajNW-35" target="gXNQpkiOnZ2-3wOrajNW-2" edge="1">
          <mxGeometry width="50" height="50" relative="1" as="geometry">
            <mxPoint x="-120" y="1280" as="sourcePoint" />
            <mxPoint x="-30" y="1263" as="targetPoint" />
            <Array as="points" />
          </mxGeometry>
        </mxCell>
        <mxCell id="gXNQpkiOnZ2-3wOrajNW-39" value="Добавить название фильма" style="rounded=1;whiteSpace=wrap;html=1;shadow=0;comic=0;labelBackgroundColor=none;strokeWidth=1;fontFamily=Verdana;fontSize=12;align=center;arcSize=50;" parent="1" vertex="1">
          <mxGeometry x="210" y="1161" width="170" height="80" as="geometry" />
        </mxCell>
        <mxCell id="gXNQpkiOnZ2-3wOrajNW-40" value="Добавить стоимость фильма" style="rounded=1;whiteSpace=wrap;html=1;shadow=0;comic=0;labelBackgroundColor=none;strokeWidth=1;fontFamily=Verdana;fontSize=12;align=center;arcSize=50;" parent="1" vertex="1">
          <mxGeometry x="425" y="1161" width="170" height="80" as="geometry" />
        </mxCell>
        <mxCell id="gXNQpkiOnZ2-3wOrajNW-41" value="Добавить сеансы фильма" style="rounded=1;whiteSpace=wrap;html=1;shadow=0;comic=0;labelBackgroundColor=none;strokeWidth=1;fontFamily=Verdana;fontSize=12;align=center;arcSize=50;" parent="1" vertex="1">
          <mxGeometry x="660" y="1300" width="170" height="80" as="geometry" />
        </mxCell>
        <mxCell id="gXNQpkiOnZ2-3wOrajNW-42" value="&amp;lt;&amp;lt;Include&amp;gt;&amp;gt;" style="endArrow=open;endSize=12;dashed=1;html=1;rounded=0;exitX=0.25;exitY=0;exitDx=0;exitDy=0;entryX=0.25;entryY=1;entryDx=0;entryDy=0;" parent="1" source="gXNQpkiOnZ2-3wOrajNW-37" target="gXNQpkiOnZ2-3wOrajNW-39" edge="1">
          <mxGeometry width="160" relative="1" as="geometry">
            <mxPoint x="410" y="1301" as="sourcePoint" />
            <mxPoint x="580" y="1306" as="targetPoint" />
          </mxGeometry>
        </mxCell>
        <mxCell id="gXNQpkiOnZ2-3wOrajNW-43" value="&amp;lt;&amp;lt;Include&amp;gt;&amp;gt;" style="endArrow=open;endSize=12;dashed=1;html=1;rounded=0;exitX=0.906;exitY=0.103;exitDx=0;exitDy=0;entryX=0.25;entryY=1;entryDx=0;entryDy=0;exitPerimeter=0;" parent="1" source="gXNQpkiOnZ2-3wOrajNW-37" target="gXNQpkiOnZ2-3wOrajNW-40" edge="1">
          <mxGeometry width="160" relative="1" as="geometry">
            <mxPoint x="580" y="1240" as="sourcePoint" />
            <mxPoint x="563" y="1200" as="targetPoint" />
            <Array as="points" />
          </mxGeometry>
        </mxCell>
        <mxCell id="gXNQpkiOnZ2-3wOrajNW-44" value="&amp;lt;&amp;lt;Include&amp;gt;&amp;gt;" style="endArrow=open;endSize=12;dashed=1;html=1;rounded=0;exitX=1;exitY=0.5;exitDx=0;exitDy=0;entryX=0;entryY=0.5;entryDx=0;entryDy=0;" parent="1" source="gXNQpkiOnZ2-3wOrajNW-37" target="gXNQpkiOnZ2-3wOrajNW-41" edge="1">
          <mxGeometry width="160" relative="1" as="geometry">
            <mxPoint x="714" y="1268" as="sourcePoint" />
            <mxPoint x="783" y="1200" as="targetPoint" />
            <Array as="points" />
          </mxGeometry>
        </mxCell>
        <mxCell id="gXNQpkiOnZ2-3wOrajNW-45" value="" style="endArrow=none;html=1;rounded=0;entryX=0.75;entryY=0.1;entryDx=0;entryDy=0;entryPerimeter=0;" parent="1" source="gXNQpkiOnZ2-3wOrajNW-37" edge="1" target="gXNQpkiOnZ2-3wOrajNW-35">
          <mxGeometry width="50" height="50" relative="1" as="geometry">
            <mxPoint x="800" y="1334" as="sourcePoint" />
            <mxPoint x="700" y="1520" as="targetPoint" />
          </mxGeometry>
        </mxCell>
        <mxCell id="gXNQpkiOnZ2-3wOrajNW-46" value="Удалить недопустимый отзыв на фильм, который пропустил внутренний фильтр" style="rounded=1;whiteSpace=wrap;html=1;shadow=0;comic=0;labelBackgroundColor=none;strokeWidth=1;fontFamily=Verdana;fontSize=12;align=center;arcSize=50;" parent="1" vertex="1">
          <mxGeometry x="660" y="1430" width="170" height="80" as="geometry" />
        </mxCell>
        <mxCell id="gXNQpkiOnZ2-3wOrajNW-47" value="" style="endArrow=none;html=1;rounded=0;exitX=0;exitY=0.5;exitDx=0;exitDy=0;entryX=0.5;entryY=0.5;entryDx=0;entryDy=0;entryPerimeter=0;" parent="1" source="gXNQpkiOnZ2-3wOrajNW-46" edge="1" target="gXNQpkiOnZ2-3wOrajNW-35">
          <mxGeometry width="50" height="50" relative="1" as="geometry">
            <mxPoint x="698" y="1350" as="sourcePoint" />
            <mxPoint x="710" y="1530" as="targetPoint" />
          </mxGeometry>
        </mxCell>
        <mxCell id="gXNQpkiOnZ2-3wOrajNW-48" value="Заблокировать пользователю, написавшему отзыв, возможность писать отзывы" style="rounded=1;whiteSpace=wrap;html=1;shadow=0;comic=0;labelBackgroundColor=none;strokeWidth=1;fontFamily=Verdana;fontSize=12;align=center;arcSize=50;" parent="1" vertex="1">
          <mxGeometry x="900" y="1480" width="190" height="80" as="geometry" />
        </mxCell>
        <mxCell id="gXNQpkiOnZ2-3wOrajNW-49" value="&amp;lt;&amp;lt;Extend&amp;gt;&amp;gt;" style="endArrow=open;endSize=12;dashed=1;html=1;rounded=0;entryX=1;entryY=0.75;entryDx=0;entryDy=0;exitX=0.341;exitY=-0.016;exitDx=0;exitDy=0;exitPerimeter=0;" parent="1" source="gXNQpkiOnZ2-3wOrajNW-48" target="gXNQpkiOnZ2-3wOrajNW-46" edge="1">
          <mxGeometry width="160" relative="1" as="geometry">
            <mxPoint x="1110" y="1540" as="sourcePoint" />
            <mxPoint x="1010" y="1480" as="targetPoint" />
          </mxGeometry>
        </mxCell>
        <mxCell id="nQvtUVdUe-XbGL-Weh8b-1" value="Посмотреть свой статус клиента" style="rounded=1;whiteSpace=wrap;html=1;shadow=0;comic=0;labelBackgroundColor=none;strokeWidth=1;fontFamily=Verdana;fontSize=12;align=center;arcSize=50;" parent="1" vertex="1">
          <mxGeometry x="-470" y="1840" width="180" height="70" as="geometry" />
        </mxCell>
        <mxCell id="nQvtUVdUe-XbGL-Weh8b-2" value="" style="endArrow=none;html=1;rounded=0;entryX=0;entryY=0.25;entryDx=0;entryDy=0;exitX=1;exitY=1;exitDx=0;exitDy=0;exitPerimeter=0;" parent="1" target="nQvtUVdUe-XbGL-Weh8b-1" edge="1" source="gXNQpkiOnZ2-3wOrajNW-1">
          <mxGeometry width="50" height="50" relative="1" as="geometry">
            <mxPoint x="-132" y="1311" as="sourcePoint" />
            <mxPoint x="-95" y="1652" as="targetPoint" />
            <Array as="points" />
          </mxGeometry>
        </mxCell>
        <mxCell id="nQvtUVdUe-XbGL-Weh8b-3" value="Поменять статус клиенту" style="rounded=1;whiteSpace=wrap;html=1;shadow=0;comic=0;labelBackgroundColor=none;strokeWidth=1;fontFamily=Verdana;fontSize=12;align=center;arcSize=50;" parent="1" vertex="1">
          <mxGeometry x="170" y="1810" width="180" height="70" as="geometry" />
        </mxCell>
        <mxCell id="nQvtUVdUe-XbGL-Weh8b-4" value="" style="endArrow=none;html=1;rounded=0;exitX=0.75;exitY=0;exitDx=0;exitDy=0;entryX=1;entryY=1;entryDx=0;entryDy=0;entryPerimeter=0;" parent="1" source="nQvtUVdUe-XbGL-Weh8b-3" edge="1" target="gXNQpkiOnZ2-3wOrajNW-35">
          <mxGeometry width="50" height="50" relative="1" as="geometry">
            <mxPoint x="850" y="1490" as="sourcePoint" />
            <mxPoint x="680" y="1570" as="targetPoint" />
          </mxGeometry>
        </mxCell>
        <mxCell id="nQvtUVdUe-XbGL-Weh8b-5" value="Редактировать свой профиль" style="rounded=1;whiteSpace=wrap;html=1;shadow=0;comic=0;labelBackgroundColor=none;strokeWidth=1;fontFamily=Verdana;fontSize=12;align=center;arcSize=50;" parent="1" vertex="1">
          <mxGeometry x="-900" y="1490" width="180" height="70" as="geometry" />
        </mxCell>
        <mxCell id="nQvtUVdUe-XbGL-Weh8b-6" value="" style="endArrow=none;html=1;rounded=0;exitX=1;exitY=0.5;exitDx=0;exitDy=0;entryX=0.5;entryY=0.5;entryDx=0;entryDy=0;entryPerimeter=0;" parent="1" source="nQvtUVdUe-XbGL-Weh8b-5" target="gXNQpkiOnZ2-3wOrajNW-1" edge="1">
          <mxGeometry width="50" height="50" relative="1" as="geometry">
            <mxPoint x="170" y="1490" as="sourcePoint" />
            <mxPoint x="220" y="1440" as="targetPoint" />
          </mxGeometry>
        </mxCell>
        <mxCell id="nQvtUVdUe-XbGL-Weh8b-7" value="Поменять ник" style="rounded=1;whiteSpace=wrap;html=1;shadow=0;comic=0;labelBackgroundColor=none;strokeWidth=1;fontFamily=Verdana;fontSize=12;align=center;arcSize=50;" parent="1" vertex="1">
          <mxGeometry x="-1180" y="1490" width="180" height="70" as="geometry" />
        </mxCell>
        <mxCell id="nQvtUVdUe-XbGL-Weh8b-8" value="Поменять почту" style="rounded=1;whiteSpace=wrap;html=1;shadow=0;comic=0;labelBackgroundColor=none;strokeWidth=1;fontFamily=Verdana;fontSize=12;align=center;arcSize=50;" parent="1" vertex="1">
          <mxGeometry x="-1070" y="1570" width="180" height="70" as="geometry" />
        </mxCell>
        <mxCell id="nQvtUVdUe-XbGL-Weh8b-9" value="Поменять пароль" style="rounded=1;whiteSpace=wrap;html=1;shadow=0;comic=0;labelBackgroundColor=none;strokeWidth=1;fontFamily=Verdana;fontSize=12;align=center;arcSize=50;" parent="1" vertex="1">
          <mxGeometry x="-980" y="1660" width="180" height="70" as="geometry" />
        </mxCell>
        <mxCell id="nQvtUVdUe-XbGL-Weh8b-11" value="&amp;lt;&amp;lt;Extend&amp;gt;&amp;gt;" style="endArrow=open;endSize=12;dashed=1;html=1;rounded=0;exitX=0.944;exitY=0.143;exitDx=0;exitDy=0;entryX=0.5;entryY=1;entryDx=0;entryDy=0;exitPerimeter=0;" parent="1" source="nQvtUVdUe-XbGL-Weh8b-9" target="nQvtUVdUe-XbGL-Weh8b-5" edge="1">
          <mxGeometry width="160" relative="1" as="geometry">
            <mxPoint x="290" y="1475" as="sourcePoint" />
            <mxPoint x="190" y="1405" as="targetPoint" />
            <Array as="points" />
          </mxGeometry>
        </mxCell>
        <mxCell id="nQvtUVdUe-XbGL-Weh8b-12" value="&amp;lt;&amp;lt;Extend&amp;gt;&amp;gt;" style="endArrow=open;endSize=12;dashed=1;html=1;rounded=0;exitX=1;exitY=0.5;exitDx=0;exitDy=0;entryX=0.25;entryY=1;entryDx=0;entryDy=0;" parent="1" source="nQvtUVdUe-XbGL-Weh8b-8" target="nQvtUVdUe-XbGL-Weh8b-5" edge="1">
          <mxGeometry width="160" relative="1" as="geometry">
            <mxPoint x="-500" y="1490" as="sourcePoint" />
            <mxPoint x="-360" y="1331" as="targetPoint" />
            <Array as="points" />
          </mxGeometry>
        </mxCell>
        <mxCell id="nQvtUVdUe-XbGL-Weh8b-13" value="&amp;lt;&amp;lt;Extend&amp;gt;&amp;gt;" style="endArrow=open;endSize=12;dashed=1;html=1;rounded=0;exitX=1;exitY=0.5;exitDx=0;exitDy=0;entryX=0;entryY=0.5;entryDx=0;entryDy=0;" parent="1" source="nQvtUVdUe-XbGL-Weh8b-7" target="nQvtUVdUe-XbGL-Weh8b-5" edge="1">
          <mxGeometry width="160" relative="1" as="geometry">
            <mxPoint x="-510" y="1405" as="sourcePoint" />
            <mxPoint x="-405" y="1331" as="targetPoint" />
            <Array as="points" />
          </mxGeometry>
        </mxCell>
      </root>
    </mxGraphModel>
  </diagram>
</mxfile>
